<svg xmlns="http://www.w3.org/2000/svg" viewBox="0 0 24 24" fill="white">
  <path d="M1.175 12.225c-.051 0-.094.046-.101.1l-.233 2.154.233 2.105c.007.058.05.098.101.098.05 0 .09-.04.099-.098l.255-2.105-.27-2.154c-.009-.06-.052-.1-.099-.1m-.899-1.574c-.074 0-.118.068-.127.127L0 12.328l.149 1.562c.009.059.053.127.127.127.075 0 .118-.068.126-.127l.173-1.562-.173-1.55c-.008-.059-.051-.127-.126-.127m1.654-.964c-.095 0-.151.068-.151.154l-.203 2.462.203 2.388c0 .087.056.155.151.155.095 0 .152-.068.152-.155l.229-2.388-.229-2.462c0-.086-.057-.154-.152-.154m.984-.921c-.095 0-.15.095-.15.181l-.181 3.356.181 2.388c0 .086.055.181.15.181.094 0 .149-.095.149-.181l.201-2.388-.201-3.356c0-.086-.055-.181-.149-.181m4.608 2.38c-.051-.273-.132-.513-.233-.732-.138-.3-.324-.575-.543-.82-.215-.242-.464-.445-.739-.605-.274-.159-.573-.273-.888-.336-.314-.063-.636-.095-.967-.095-1.849 0-3.465 1.283-3.465 3.384 0 2.101 1.616 3.384 3.465 3.384.331 0 .653-.032.967-.095.315-.063.614-.177.888-.336.275-.16.524-.363.739-.605.219-.245.405-.52.543-.82.101-.219.182-.459.233-.732.033-.178.05-.364.05-.556 0-.192-.017-.378-.05-.556m5.871-2.38c-.095 0-.15.095-.15.181l-.181 3.356.181 2.388c0 .086.055.181.15.181.094 0 .149-.095.149-.181l.201-2.388-.201-3.356c0-.086-.055-.181-.149-.181m-4.633-1.349c-.075 0-.118.068-.118.154l-.181 4.886.181 2.388c0 .086.043.154.118.154.074 0 .117-.068.117-.154l.202-2.388-.202-4.886c0-.086-.043-.154-.117-.154m.985-.474c-.075 0-.118.068-.118.154l-.167 5.36.167 2.388c0 .086.043.154.118.154.075 0 .118-.068.118-.154l.185-2.388-.185-5.36c0-.086-.043-.154-.118-.154m5.09 2.902l-.174 2.932.174 2.388c0 .086.055.181.15.181.094 0 .149-.095.149-.181l.201-2.388-.201-2.932c0-.086-.055-.181-.149-.181-.095 0-.15.095-.15.181m-.984-1.499c-.095 0-.15.095-.15.181l-.181 4.431.181 2.388c0 .086.055.181.15.181.094 0 .149-.095.149-.181l.201-2.388-.201-4.431c0-.086-.055-.181-.149-.181m-13.178.454c-.075 0-.118.068-.118.154l-.167 5.36.167 2.388c0 .086.043.154.118.154.075 0 .118-.068.118-.154l.185-2.388-.185-5.36c0-.086-.043-.154-.118-.154m1.654.237c-.075 0-.118.069-.118.154l-.167 5.123.167 2.388c0 .086.043.154.118.154.075 0 .118-.068.118-.154l.185-2.388-.185-5.123c0-.085-.043-.154-.118-.154m.984-.379c-.075 0-.118.068-.118.154l-.167 5.502.167 2.388c0 .086.043.154.118.154.075 0 .118-.068.118-.154l.185-2.388-.185-5.502c0-.086-.043-.154-.118-.154m.984-.454c-.075 0-.118.068-.118.154l-.167 5.956.167 2.388c0 .086.043.154.118.154.075 0 .118-.068.118-.154l.185-2.388-.185-5.956c0-.086-.043-.154-.118-.154m.984-.94c-.095 0-.15.095-.15.181l-.181 7.085.181 2.388c0 .086.055.181.15.181.094 0 .149-.095.149-.181l.201-2.388-.201-7.085c0-.086-.055-.181-.149-.181m13.901 5.943c-.095 0-.15.095-.15.181l-.181 2.387.181 2.388c0 .086.055.181.15.181.094 0 .149-.095.149-.181l.201-2.388-.201-2.387c0-.086-.055-.181-.149-.181m.984-1.499c-.095 0-.15.095-.15.181l-.181 3.886.181 2.388c0 .086.055.181.15.181.094 0 .149-.095.149-.181l.201-2.388-.201-3.886c0-.086-.055-.181-.149-.181m.984-1.914c-.095 0-.15.095-.15.181l-.181 5.8.181 2.388c0 .086.055.181.15.181.094 0 .149-.095.149-.181l.201-2.388-.201-5.8c0-.086-.055-.181-.149-.181m.984.474c-.095 0-.15.095-.15.181l-.181 5.326.181 2.388c0 .086.055.181.15.181.094 0 .149-.095.149-.181l.201-2.388-.201-5.326c0-.086-.055-.181-.149-.181m.984-.474c-.095 0-.15.095-.15.181l-.181 5.8.181 2.388c0 .086.055.181.15.181.094 0 .149-.095.149-.181l.201-2.388-.201-5.8c0-.086-.055-.181-.149-.181m.984-.474c-.095 0-.15.095-.15.181l-.181 6.274.181 2.388c0 .086.055.181.15.181.094 0 .149-.095.149-.181l.201-2.388-.201-6.274c0-.086-.055-.181-.149-.181m.984-.474c-.095 0-.15.095-.15.181l-.181 6.748.181 2.388c0 .086.055.181.15.181.094 0 .149-.095.149-.181l.201-2.388-.201-6.748c0-.086-.055-.181-.149-.181m.984-.474c-.095 0-.15.095-.15.181l-.181 7.222.181 2.388c0 .086.055.181.15.181.094 0 .149-.095.149-.181l.201-2.388-.201-7.222c0-.086-.055-.181-.149-.181m.984-.474c-.095 0-.15.095-.15.181l-.181 7.696.181 2.388c0 .086.055.181.15.181.094 0 .149-.095.149-.181l.201-2.388-.201-7.696c0-.086-.055-.181-.149-.181"/>
</svg> 