<?xml version="1.0" encoding="UTF-8"?>
<svg width="24" height="24" viewBox="0 0 24 24" fill="none" xmlns="http://www.w3.org/2000/svg">
  <path d="M1.175 12.225c-.051 0-.094.046-.101.1l-.233 2.154.233 2.105c.007.058.05.098.101.098.05 0 .09-.04.099-.098l.255-2.105-.255-2.154c-.009-.06-.049-.1-.099-.1m-.899-1.574c-.05 0-.091.042-.096.1l-.169 3.728.169 3.674c.005.058.046.098.096.098.052 0 .092-.04.097-.098l.194-3.674-.194-3.728c-.005-.058-.045-.1-.097-.1m2.562-2.25c-.062 0-.112.047-.119.113l-.213 5.865.213 5.865c.007.066.057.115.119.115.063 0 .114-.049.121-.115l.244-5.865-.244-5.865c-.007-.066-.058-.113-.121-.113m1.602-1.877c-.062 0-.115.05-.12.119l-.203 7.623.203 7.623c.005.069.058.119.12.119.063 0 .116-.05.121-.119l.229-7.623-.229-7.623c-.005-.069-.058-.119-.121-.119m1.604-1.869c-.062 0-.115.048-.119.115l-.189 9.396.189 9.396c.004.067.057.115.119.115.064 0 .116-.048.12-.115l.216-9.396-.216-9.396c-.004-.067-.056-.115-.12-.115m1.875-1.389c-.074 0-.135.06-.138.133l-.176 10.767.176 10.767c.003.074.064.133.138.133.075 0 .136-.059.139-.133l.199-10.767-.199-10.767c-.003-.073-.064-.133-.139-.133m1.614-.75c-.074 0-.135.058-.137.13l-.163 11.52.163 11.52c.002.072.063.13.137.13.075 0 .137-.058.14-.13l.185-11.52-.185-11.52c-.003-.072-.065-.13-.14-.13m1.614-.246c-.084 0-.154.068-.155.154l-.15 11.742.15 11.742c.001.085.071.151.155.151.085 0 .155-.066.157-.151l.169-11.742-.169-11.742c-.002-.086-.072-.154-.157-.154m2.535.005c-.095 0-.174.077-.175.175l-.139 11.718.139 11.718c.001.097.08.174.175.174.096 0 .175-.077.176-.174l.156-11.718-.156-11.718c-.001-.098-.08-.175-.176-.175m1.685.075c-.095 0-.175.075-.175.17l-.127 11.723.127 11.723c0 .095.08.17.175.17.096 0 .176-.075.177-.17l.142-11.723-.142-11.723c-.001-.095-.081-.17-.177-.17m1.787-.05c-.108 0-.197.087-.197.194l-.114 11.748.114 11.748c0 .107.089.194.197.194.107 0 .197-.087.198-.194l.13-11.748-.13-11.748c-.001-.107-.091-.194-.198-.194m1.787-.075c-.107 0-.197.084-.198.191l-.102 11.776.102 11.776c.001.107.091.191.198.191.108 0 .198-.084.199-.191l.116-11.776-.116-11.776c-.001-.107-.091-.191-.199-.191m2.072-.111c-.12 0-.219.095-.219.214l-.089 11.764.089 11.764c0 .119.099.214.219.214.121 0 .22-.095.221-.214l.101-11.764-.101-11.764c-.001-.119-.1-.214-.221-.214" fill="currentColor"/>
</svg> 